<svg xmlns="http://www.w3.org/2000/svg" xmlns:xlink="http://www.w3.org/1999/xlink" viewBox="0 0 40 42"><defs><linearGradient id="Degradado_sin_nombre_9" y1="23" x2="38" y2="23" gradientUnits="userSpaceOnUse"><stop offset="0" stop-color="#494949"/><stop offset="1" stop-color="#333"/></linearGradient></defs><title>Recurso 1</title><g id="Capa_2" data-name="Capa 2"><g id="Capa_1-2" data-name="Capa 1"><path d="M32,20A11,11,0,0,1,21,9a10.87,10.87,0,0,1,1.08-4.73A19.59,19.59,0,0,0,19,4,19,19,0,1,0,38,23a18.78,18.78,0,0,0-.55-4.46A10.83,10.83,0,0,1,32,20Z" style="fill:url(#Degradado_sin_nombre_9)"/><circle cx="32" cy="8" r="8" style="fill:#1bb51e"/><path d="M29.3,3.83h0l.09-.08A4.68,4.68,0,0,1,32,3a4.84,4.84,0,0,1,2.5.69,1.18,1.18,0,0,1,.27.22h0c-.7-.77-2.77.89-2.77.89a6,6,0,0,0-1.87-1.06A.94.94,0,0,0,29.3,3.83Zm6.27.73-.07-.07a.69.69,0,0,0-.59-.23,5.6,5.6,0,0,0-2,1.32,13.77,13.77,0,0,1,1.85,2.27,4.17,4.17,0,0,1,.87,3.29,4.85,4.85,0,0,0,0-6.58ZM33.81,8.33C33.5,8,33,7.48,32.42,6.87L32,6.45,31.48,7h0c-.37.38-.86.87-1.13,1.16-.48.51-1.85,2.12-1.93,3a3.43,3.43,0,0,1,.37-2.36A12.6,12.6,0,0,1,31.1,5.57,5.52,5.52,0,0,0,30,4.63h0a2,2,0,0,0-1-.34.84.84,0,0,0-.53.26,4.87,4.87,0,1,0,7.15,6.6,4.1,4.1,0,0,0-.76-1.56C34.69,9.36,34.13,8.69,33.81,8.33Z" style="fill:#f9fff9"/><path d="M22.54,23.2a3.47,3.47,0,0,1-6.08,0,4.91,4.91,0,0,0-3,4.3,4.15,4.15,0,0,0,.12,1H25.38a4.15,4.15,0,0,0,.12-1A4.91,4.91,0,0,0,22.54,23.2Z" style="fill:none;stroke:#fff;stroke-miterlimit:10"/><circle cx="19.5" cy="21.5" r="3.5" style="fill:none;stroke:#fff;stroke-miterlimit:10"/></g></g></svg>